<?xml version="1.0" standalone="no"?><!DOCTYPE svg PUBLIC "-//W3C//DTD SVG 1.1//EN" "http://www.w3.org/Graphics/SVG/1.1/DTD/svg11.dtd"><svg height="1024" node-id="1" sillyvg="true" template-height="1024" template-width="1024" version="1.1" viewBox="0 0 1024 1024" width="1024" xmlns="http://www.w3.org/2000/svg" xmlns:xlink="http://www.w3.org/1999/xlink"><defs node-id="101"><linearGradient gradientUnits="objectBoundingBox" id="linearGradient-10" node-id="29" spreadMethod="pad" x1="0.5" x2="0.5" y1="1" y2="0"><stop offset="0" stop-color="#639bff"></stop><stop offset="1" stop-color="#e0eaff"></stop></linearGradient><linearGradient gradientUnits="objectBoundingBox" id="linearGradient-11" node-id="32" spreadMethod="pad" x1="0.5" x2="0.5" y1="1" y2="0"><stop offset="0" stop-color="#e0eaff"></stop><stop offset="1" stop-color="#639bff"></stop></linearGradient><linearGradient gradientUnits="objectBoundingBox" id="linearGradient-12" node-id="35" spreadMethod="pad" x1="0.5" x2="0.5" y1="1" y2="0"><stop offset="0" stop-color="#639bff"></stop><stop offset="1" stop-color="#e0eaff"></stop></linearGradient><linearGradient gradientUnits="objectBoundingBox" id="linearGradient-13" node-id="38" spreadMethod="pad" x1="0.5" x2="0.5" y1="1" y2="0"><stop offset="0" stop-color="#e0eaff"></stop><stop offset="1" stop-color="#639bff"></stop></linearGradient><linearGradient gradientUnits="objectBoundingBox" id="linearGradient-14" node-id="41" spreadMethod="pad" x1="0" x2="0.9110967" y1="0.8362877" y2="0.12708892"><stop offset="0" stop-color="#e0eaff"></stop><stop offset="1" stop-color="#639bff"></stop></linearGradient><linearGradient gradientUnits="objectBoundingBox" id="linearGradient-15" node-id="44" spreadMethod="pad" x1="0.5" x2="0.5" y1="0.14543194" y2="0.8975148"><stop offset="0" stop-color="#639bff"></stop><stop offset="1" stop-color="#e0eaff"></stop></linearGradient><linearGradient gradientUnits="objectBoundingBox" id="linearGradient-18" node-id="48" spreadMethod="pad" x1="0.48563805" x2="0.44734558" y1="0.5269028" y2="0.44783592"><stop offset="0" stop-color="#639bff"></stop><stop offset="1" stop-color="#e0eaff"></stop></linearGradient><linearGradient gradientUnits="objectBoundingBox" id="linearGradient-19" node-id="51" spreadMethod="pad" x1="0" x2="1" y1="0.5593072" y2="0.5"><stop offset="0" stop-color="#e0eaff"></stop><stop offset="1" stop-color="#639bff"></stop></linearGradient><linearGradient gradientUnits="objectBoundingBox" id="linearGradient-22" node-id="55" spreadMethod="pad" x1="0.5" x2="0.5" y1="0" y2="1"><stop offset="0" stop-color="#9cbcfa" stop-opacity="0"></stop><stop offset="1" stop-color="#92abff"></stop></linearGradient><filter filterUnits="objectBoundingBox" height="1032.192" id="filter-2" node-id="6" width="1032.192" x="-4.096" y="-4.096"><feGaussianBlur color-interpolation-filters="linearRGB" in="SourceAlpha" result="shadowBlurInner1" stdDeviation="4 4"></feGaussianBlur><feOffset color-interpolation-filters="linearRGB" dx="0" dy="0" in="shadowBlurInner1" result="shadowOffsetInner1"></feOffset><feComposite color-interpolation-filters="linearRGB" in="shadowOffsetInner1" in2="SourceAlpha" k1="0" k2="-1" k3="1" k4="0" operator="arithmetic" result="shadowInnerInner1"></feComposite><feColorMatrix color-interpolation-filters="linearRGB" in="shadowInnerInner1" result="result4" type="matrix" values="0 0 0 0 0.5349466 0 0 0 0 0.7029659 0 0 0 0 1 0 0 0 0.5 0"></feColorMatrix></filter><filter filterUnits="objectBoundingBox" height="897.9017" id="filter-5" node-id="12" width="897.9017" x="65.4385" y="65.4385"><feGaussianBlur color-interpolation-filters="linearRGB" in="SourceAlpha" result="shadowBlurInner1" stdDeviation="8 8"></feGaussianBlur><feOffset color-interpolation-filters="linearRGB" dx="0" dy="4" in="shadowBlurInner1" result="shadowOffsetInner1"></feOffset><feComposite color-interpolation-filters="linearRGB" in="shadowOffsetInner1" in2="SourceAlpha" k1="0" k2="-1" k3="1" k4="0" operator="arithmetic" result="shadowInnerInner1"></feComposite><feColorMatrix color-interpolation-filters="linearRGB" in="shadowInnerInner1" result="result4" type="matrix" values="0 0 0 0 0.5349466 0 0 0 0 0.7029659 0 0 0 0 1 0 0 0 0.60145324 0"></feColorMatrix></filter><filter filterUnits="objectBoundingBox" height="424.7552" id="filter-7" node-id="18" width="737.55304" x="-7.9384384" y="-5.7344"><feMorphology color-interpolation-filters="linearRGB" in="SourceAlpha" operator="dilate" radius="0.5 0.5" result="shadowSpreadOuter1"></feMorphology><feOffset color-interpolation-filters="linearRGB" dx="0" dy="2" in="shadowSpreadOuter1" result="shadowOffsetOuter1"></feOffset><feGaussianBlur color-interpolation-filters="linearRGB" in="shadowOffsetOuter1" result="shadowBlurOuter1" stdDeviation="2 2"></feGaussianBlur><feComposite color-interpolation-filters="linearRGB" in="shadowBlurOuter1" in2="SourceAlpha" operator="out" result="shadowBlurOuter1"></feComposite><feColorMatrix color-interpolation-filters="linearRGB" in="shadowBlurOuter1" result="result5" type="matrix" values="0 0 0 0 0.7607843 0 0 0 0 0.85490197 0 0 0 0 0.99607843 0 0 0 0.4 0"></feColorMatrix></filter><filter filterUnits="objectBoundingBox" height="328.15787" id="filter-9" node-id="25" width="573.7813" x="80.4942" y="12.529858"><feOffset color-interpolation-filters="linearRGB" dx="0" dy="2" in="SourceAlpha" result="shadowOffsetOuter1"></feOffset><feGaussianBlur color-interpolation-filters="linearRGB" in="shadowOffsetOuter1" result="shadowBlurOuter1" stdDeviation="2 2"></feGaussianBlur><feColorMatrix color-interpolation-filters="linearRGB" in="shadowBlurOuter1" result="result3" type="matrix" values="0 0 0 0 0.7607843 0 0 0 0 0.85490197 0 0 0 0 0.99607843 0 0 0 0.4 0"></feColorMatrix></filter><mask height="491.52002" id="mask-4" maskUnits="userSpaceOnUse" node-id="63" width="866.0115" x="1129.3256" y="3635.2212"><path d="M 2004.10 3730.60 L 2003.90 3745.20 L 2003.10 3759.70 L 2002.00 3774.10 L 2000.30 3788.30 L 1998.20 3802.50 L 1995.60 3816.60 L 1992.60 3830.70 L 1989.10 3844.50 L 1985.10 3858.30 L 1980.80 3871.80 L 1976.00 3885.30 L 1970.70 3898.60 L 1965.00 3911.70 L 1958.90 3924.60 L 1952.40 3937.20 L 1945.50 3949.70 L 1938.20 3962.00 L 1930.40 3974.10 L 1922.20 3985.90 L 1913.70 3997.40 L 1904.80 4008.70 L 1895.50 4019.70 L 1885.70 4030.40 L 1875.60 4040.90 L 1865.10 4051.10 L 1854.30 4060.80 L 1843.30 4070.10 L 1832.10 4079.10 L 1820.50 4087.60 L 1808.70 4095.70 L 1796.60 4103.50 L 1784.40 4110.90 L 1771.90 4117.80 L 1759.20 4124.30 L 1746.30 4130.40 L 1733.20 4136.10 L 1719.90 4141.30 L 1706.50 4146.10 L 1692.90 4150.50 L 1679.20 4154.40 L 1665.30 4157.90 L 1651.30 4161.00 L 1637.20 4163.50 L 1623.00 4165.70 L 1608.70 4167.30 L 1594.30 4168.50 L 1579.90 4169.20 L 1565.30 4169.50 L 1550.70 4169.20 L 1536.20 4168.50 L 1521.80 4167.30 L 1507.50 4165.70 L 1493.30 4163.50 L 1479.20 4161.00 L 1465.20 4157.90 L 1451.30 4154.40 L 1437.60 4150.50 L 1424.00 4146.10 L 1410.60 4141.30 L 1397.30 4136.10 L 1384.20 4130.40 L 1371.30 4124.30 L 1358.60 4117.80 L 1346.10 4110.90 L 1333.90 4103.50 L 1321.80 4095.70 L 1310.00 4087.60 L 1298.50 4079.10 L 1287.20 4070.10 L 1276.20 4060.80 L 1265.40 4051.10 L 1254.90 4040.90 L 1244.80 4030.40 L 1235.10 4019.70 L 1225.70 4008.70 L 1216.80 3997.40 L 1208.30 3985.90 L 1200.10 3974.10 L 1192.40 3962.00 L 1185.00 3949.70 L 1178.10 3937.20 L 1171.60 3924.60 L 1165.50 3911.70 L 1159.80 3898.60 L 1154.60 3885.30 L 1149.70 3871.80 L 1145.40 3858.30 L 1141.40 3844.50 L 1138.00 3830.70 L 1134.90 3816.60 L 1132.30 3802.50 L 1130.20 3788.30 L 1128.60 3774.10 L 1127.40 3759.70 L 1126.60 3745.20 L 1126.40 3730.60 L 1126.60 3716.00 L 1127.40 3701.50 L 1128.60 3687.20 L 1130.20 3672.90 L 1132.30 3658.70 L 1134.90 3644.60 L 1138.00 3630.50 L 1141.40 3616.70 L 1145.40 3603.00 L 1149.70 3589.40 L 1154.60 3576.00 L 1159.80 3562.70 L 1165.50 3549.60 L 1171.60 3536.70 L 1178.10 3524.00 L 1185.00 3511.50 L 1192.40 3499.20 L 1200.10 3487.10 L 1208.30 3475.30 L 1216.80 3463.80 L 1225.70 3452.50 L 1235.10 3441.50 L 1244.80 3430.80 L 1254.90 3420.30 L 1265.40 3410.10 L 1276.20 3400.40 L 1287.20 3391.10 L 1298.50 3382.20 L 1310.00 3373.60 L 1321.80 3365.50 L 1333.90 3357.70 L 1346.10 3350.40 L 1358.60 3343.40 L 1371.30 3336.90 L 1384.20 3330.80 L 1397.30 3325.20 L 1410.60 3319.90 L 1424.00 3315.10 L 1437.60 3310.70 L 1451.30 3306.80 L 1465.20 3303.30 L 1479.20 3300.30 L 1493.30 3297.70 L 1507.50 3295.60 L 1521.80 3293.90 L 1536.20 3292.70 L 1550.70 3292.00 L 1565.30 3291.80 L 1579.90 3292.00 L 1594.30 3292.70 L 1608.70 3293.90 L 1623.00 3295.60 L 1637.20 3297.70 L 1651.30 3300.30 L 1665.30 3303.30 L 1679.20 3306.80 L 1692.90 3310.70 L 1706.50 3315.10 L 1719.90 3319.90 L 1733.20 3325.20 L 1746.30 3330.80 L 1759.20 3336.90 L 1771.90 3343.40 L 1784.40 3350.40 L 1796.60 3357.70 L 1808.70 3365.50 L 1820.50 3373.60 L 1832.10 3382.20 L 1843.30 3391.10 L 1854.30 3400.40 L 1865.10 3410.10 L 1875.60 3420.30 L 1885.70 3430.80 L 1895.50 3441.50 L 1904.80 3452.50 L 1913.70 3463.80 L 1922.20 3475.30 L 1930.40 3487.10 L 1938.20 3499.20 L 1945.50 3511.50 L 1952.40 3524.00 L 1958.90 3536.70 L 1965.00 3549.60 L 1970.70 3562.70 L 1976.00 3576.00 L 1980.80 3589.40 L 1985.10 3603.00 L 1989.10 3616.70 L 1992.60 3630.50 L 1995.60 3644.60 L 1998.20 3658.70 L 2000.30 3672.90 L 2002.00 3687.20 L 2003.10 3701.50 L 2003.90 3716.00 L 2004.10 3730.60 Z" fill="#ffffff" fill-rule="evenodd" node-id="200" stroke="none" target-height="877.69995" target-width="877.69995" target-x="1126.4" target-y="3291.8"></path></mask><mask height="617.3911" id="mask3" maskUnits="userSpaceOnUse" node-id="204" width="524.28784" x="-1613.3551" y="2614.4531"><path d="M -1785.20 2998.90 L -1784.90 3013.50 L -1784.20 3028.00 L -1783.00 3042.40 L -1781.40 3056.70 L -1779.30 3070.90 L -1776.70 3085.00 L -1773.60 3099.00 L -1770.10 3112.90 L -1766.20 3126.60 L -1761.80 3140.20 L -1757.00 3153.60 L -1751.80 3166.90 L -1746.10 3180.00 L -1740.00 3192.90 L -1733.50 3205.60 L -1726.60 3218.00 L -1719.20 3230.30 L -1711.50 3242.40 L -1703.30 3254.20 L -1694.80 3265.70 L -1685.90 3277.00 L -1676.50 3288.00 L -1666.80 3298.80 L -1656.70 3309.30 L -1646.20 3319.40 L -1635.40 3329.10 L -1624.40 3338.50 L -1613.10 3347.40 L -1601.60 3355.90 L -1589.80 3364.10 L -1577.70 3371.80 L -1565.40 3379.20 L -1553.00 3386.10 L -1540.30 3392.60 L -1527.40 3398.70 L -1514.30 3404.40 L -1501.00 3409.60 L -1487.60 3414.50 L -1474.00 3418.80 L -1460.30 3422.70 L -1446.40 3426.20 L -1432.40 3429.30 L -1418.20 3431.90 L -1404.10 3434.00 L -1389.80 3435.60 L -1375.40 3436.80 L -1360.90 3437.50 L -1346.30 3437.80 L -1331.70 3437.50 L -1317.30 3436.80 L -1302.90 3435.60 L -1288.60 3434.00 L -1274.40 3431.90 L -1260.30 3429.30 L -1246.30 3426.20 L -1232.40 3422.70 L -1218.70 3418.80 L -1205.10 3414.50 L -1191.70 3409.60 L -1178.40 3404.40 L -1165.30 3398.70 L -1152.40 3392.60 L -1139.70 3386.10 L -1127.20 3379.20 L -1114.90 3371.80 L -1102.90 3364.10 L -1091.10 3355.90 L -1079.50 3347.40 L -1068.30 3338.50 L -1057.30 3329.10 L -1046.50 3319.40 L -1036.00 3309.30 L -1025.90 3298.80 L -1016.10 3288.00 L -1006.80 3277.00 L -997.90 3265.70 L -989.40 3254.20 L -981.20 3242.40 L -973.40 3230.30 L -966.10 3218.00 L -959.20 3205.60 L -952.70 3192.90 L -946.60 3180.00 L -940.90 3166.90 L -935.60 3153.60 L -930.80 3140.20 L -926.50 3126.60 L -922.50 3112.90 L -919.00 3099.00 L -916.00 3085.00 L -913.40 3070.90 L -911.30 3056.70 L -909.60 3042.40 L -908.40 3028.00 L -907.70 3013.50 L -907.50 2998.90 L -907.70 2984.30 L -908.40 2969.90 L -909.60 2955.50 L -911.30 2941.20 L -913.40 2927.00 L -916.00 2912.90 L -919.00 2898.90 L -922.50 2885.00 L -926.50 2871.30 L -930.80 2857.70 L -935.60 2844.30 L -940.90 2831.00 L -946.60 2817.90 L -952.70 2805.00 L -959.20 2792.30 L -966.10 2779.80 L -973.40 2767.50 L -981.20 2755.50 L -989.40 2743.70 L -997.90 2732.10 L -1006.80 2720.90 L -1016.10 2709.90 L -1025.90 2699.10 L -1036.00 2688.60 L -1046.50 2678.50 L -1057.30 2668.70 L -1068.30 2659.40 L -1079.50 2650.50 L -1091.10 2642.00 L -1102.90 2633.80 L -1114.90 2626.00 L -1127.20 2618.70 L -1139.70 2611.80 L -1152.40 2605.30 L -1165.30 2599.20 L -1178.40 2593.50 L -1191.70 2588.20 L -1205.10 2583.40 L -1218.70 2579.10 L -1232.40 2575.10 L -1246.30 2571.60 L -1260.30 2568.60 L -1274.40 2566.00 L -1288.60 2563.90 L -1302.90 2562.20 L -1317.30 2561.00 L -1331.70 2560.30 L -1346.30 2560.10 L -1360.90 2560.30 L -1375.40 2561.00 L -1389.80 2562.20 L -1404.10 2563.90 L -1418.20 2566.00 L -1432.40 2568.60 L -1446.40 2571.60 L -1460.30 2575.10 L -1474.00 2579.10 L -1487.60 2583.40 L -1501.00 2588.20 L -1514.30 2593.50 L -1527.40 2599.20 L -1540.30 2605.30 L -1553.00 2611.80 L -1565.40 2618.70 L -1577.70 2626.00 L -1589.80 2633.80 L -1601.60 2642.00 L -1613.10 2650.50 L -1624.40 2659.40 L -1635.40 2668.70 L -1646.20 2678.50 L -1656.70 2688.60 L -1666.80 2699.10 L -1676.50 2709.90 L -1685.90 2720.90 L -1694.80 2732.10 L -1703.30 2743.70 L -1711.50 2755.50 L -1719.20 2767.50 L -1726.60 2779.80 L -1733.50 2792.30 L -1740.00 2805.00 L -1746.10 2817.90 L -1751.80 2831.00 L -1757.00 2844.30 L -1761.80 2857.70 L -1766.20 2871.30 L -1770.10 2885.00 L -1773.60 2898.90 L -1776.70 2912.90 L -1779.30 2927.00 L -1781.40 2941.20 L -1783.00 2955.50 L -1784.20 2969.90 L -1784.90 2984.30 L -1785.20 2998.90 Z" fill="#ffffff" fill-rule="evenodd" node-id="208" stroke="none" target-height="877.69995" target-width="877.69995" target-x="-1785.2" target-y="2560.1"></path></mask><mask height="134.94623" id="mask-17" maskUnits="userSpaceOnUse" node-id="88" width="417.79202" x="-34.816" y="176.6726"><path d="M -0.00 0.00 L 348.20 61.00 L 348.20 299.90 L -0.00 238.90 Z" fill="#ffffff" fill-rule="evenodd" node-id="215" stroke="none" target-height="299.9" target-width="348.2" target-x="-0" target-y="0"></path></mask><mask height="32.767975" id="mask1" maskUnits="userSpaceOnUse" node-id="219" width="32.768005" x="167.936" y="236.20267"><path d="M -0.00 0.00 L 348.20 61.00 L 348.20 299.90 L -0.00 238.90 Z" fill="#ffffff" fill-rule="evenodd" node-id="223" stroke="none" target-height="299.9" target-width="348.2" target-x="-0" target-y="0"></path></mask><mask height="32.76799" id="mask2" maskUnits="userSpaceOnUse" node-id="227" width="32.768005" x="167.936" y="229.37599"><path d="M -0.00 0.00 L 348.20 61.00 L 348.20 299.90 L -0.00 238.90 Z" fill="#ffffff" fill-rule="evenodd" node-id="231" stroke="none" target-height="299.9" target-width="348.2" target-x="-0" target-y="0"></path></mask><mask height="256.78986" id="mask4" maskUnits="userSpaceOnUse" node-id="235" width="877.53345" x="67.67221" y="324.20087"><path d="M 952.80 514.00 L 952.60 528.50 L 951.80 543.00 L 950.70 557.40 L 949.00 571.70 L 946.90 585.90 L 944.30 600.00 L 941.20 614.00 L 937.80 627.90 L 933.80 641.60 L 929.50 655.20 L 924.70 668.60 L 919.40 681.90 L 913.70 695.00 L 907.60 707.90 L 901.10 720.60 L 894.20 733.10 L 886.80 745.30 L 879.10 757.40 L 870.90 769.20 L 862.40 780.80 L 853.50 792.00 L 844.10 803.00 L 834.40 813.80 L 824.30 824.30 L 813.80 834.40 L 803.00 844.10 L 792.00 853.50 L 780.80 862.40 L 769.20 870.90 L 757.40 879.10 L 745.30 886.80 L 733.10 894.20 L 720.60 901.10 L 707.90 907.60 L 695.00 913.70 L 681.90 919.40 L 668.60 924.70 L 655.20 929.50 L 641.60 933.80 L 627.90 937.80 L 614.00 941.20 L 600.00 944.30 L 585.90 946.90 L 571.70 949.00 L 557.40 950.70 L 543.00 951.80 L 528.50 952.60 L 514.00 952.80 L 499.40 952.60 L 484.90 951.80 L 470.50 950.70 L 456.20 949.00 L 442.00 946.90 L 427.90 944.30 L 413.90 941.20 L 400.00 937.80 L 386.30 933.80 L 372.70 929.50 L 359.30 924.70 L 346.00 919.40 L 332.90 913.70 L 320.00 907.60 L 307.30 901.10 L 294.80 894.20 L 282.60 886.80 L 270.50 879.10 L 258.70 870.90 L 247.10 862.40 L 235.90 853.50 L 224.90 844.10 L 214.10 834.40 L 203.60 824.30 L 193.50 813.80 L 183.80 803.00 L 174.40 792.00 L 165.50 780.80 L 157.00 769.20 L 148.80 757.40 L 141.10 745.30 L 133.70 733.10 L 126.80 720.60 L 120.30 707.90 L 114.20 695.00 L 108.50 681.90 L 103.20 668.60 L 98.40 655.20 L 94.10 641.60 L 90.10 627.90 L 86.70 614.00 L 83.60 600.00 L 81.00 585.90 L 78.90 571.70 L 77.20 557.40 L 76.10 543.00 L 75.30 528.50 L 75.10 514.00 L 75.30 499.40 L 76.10 484.90 L 77.20 470.50 L 78.90 456.20 L 81.00 442.00 L 83.60 427.90 L 86.70 413.90 L 90.10 400.00 L 94.10 386.30 L 98.40 372.70 L 103.20 359.30 L 108.50 346.00 L 114.20 332.90 L 120.30 320.00 L 126.80 307.30 L 133.70 294.80 L 141.10 282.60 L 148.80 270.50 L 157.00 258.70 L 165.50 247.10 L 174.40 235.90 L 183.80 224.90 L 193.50 214.10 L 203.60 203.60 L 214.10 193.50 L 224.90 183.80 L 235.90 174.40 L 247.10 165.50 L 258.70 157.00 L 270.50 148.80 L 282.60 141.10 L 294.80 133.70 L 307.30 126.80 L 320.00 120.30 L 332.90 114.20 L 346.00 108.50 L 359.30 103.20 L 372.70 98.40 L 386.30 94.10 L 400.00 90.10 L 413.90 86.70 L 427.90 83.60 L 442.00 81.00 L 456.20 78.90 L 470.50 77.20 L 484.90 76.10 L 499.40 75.30 L 514.00 75.10 L 528.50 75.30 L 543.00 76.10 L 557.40 77.20 L 571.70 78.90 L 585.90 81.00 L 600.00 83.60 L 614.00 86.70 L 627.90 90.10 L 641.60 94.10 L 655.20 98.40 L 668.60 103.20 L 681.90 108.50 L 695.00 114.20 L 707.90 120.30 L 720.60 126.80 L 733.10 133.70 L 745.30 141.10 L 757.40 148.80 L 769.20 157.00 L 780.80 165.50 L 792.00 174.40 L 803.00 183.80 L 813.80 193.50 L 824.30 203.60 L 834.40 214.10 L 844.10 224.90 L 853.50 235.90 L 862.40 247.10 L 870.90 258.70 L 879.10 270.50 L 886.80 282.60 L 894.20 294.80 L 901.10 307.30 L 907.60 320.00 L 913.70 332.90 L 919.40 346.00 L 924.70 359.30 L 929.50 372.70 L 933.80 386.30 L 937.80 400.00 L 941.20 413.90 L 944.30 427.90 L 946.90 442.00 L 949.00 456.20 L 950.70 470.50 L 951.80 484.90 L 952.60 499.40 L 952.80 514.00 Z" fill="#ffffff" fill-rule="evenodd" node-id="239" stroke="none" target-height="877.7" target-width="877.7" target-x="75.1" target-y="75.1"></path></mask></defs><g node-id="338"><g node-id="339"><g node-id="344"><path d="M 1024.00 512.00 L 1023.70 528.30 L 1023.00 544.50 L 1021.70 560.60 L 1019.90 576.70 L 1017.60 592.60 L 1014.80 608.40 L 1011.60 624.20 L 1007.80 639.70 L 1003.60 655.20 L 998.90 670.40 L 993.70 685.60 L 988.00 700.50 L 981.90 715.30 L 975.30 729.80 L 968.30 744.20 L 960.80 758.40 L 952.90 772.30 L 944.60 785.90 L 935.80 799.40 L 926.50 812.60 L 916.90 825.40 L 906.80 838.00 L 896.30 850.30 L 885.40 862.30 L 874.00 874.00 L 862.30 885.40 L 850.30 896.30 L 838.00 906.80 L 825.40 916.90 L 812.60 926.50 L 799.40 935.80 L 785.90 944.60 L 772.30 952.90 L 758.40 960.80 L 744.20 968.30 L 729.80 975.30 L 715.30 981.90 L 700.50 988.00 L 685.60 993.70 L 670.40 998.90 L 655.20 1003.60 L 639.70 1007.80 L 624.20 1011.60 L 608.40 1014.80 L 592.60 1017.60 L 576.70 1019.90 L 560.60 1021.70 L 544.50 1023.00 L 528.30 1023.70 L 512.00 1024.00 L 495.70 1023.70 L 479.50 1023.00 L 463.40 1021.70 L 447.30 1019.90 L 431.40 1017.60 L 415.60 1014.80 L 399.80 1011.60 L 384.30 1007.80 L 368.80 1003.60 L 353.60 998.90 L 338.40 993.70 L 323.50 988.00 L 308.70 981.90 L 294.20 975.30 L 279.80 968.30 L 265.60 960.80 L 251.70 952.90 L 238.10 944.60 L 224.60 935.80 L 211.40 926.50 L 198.60 916.90 L 186.00 906.80 L 173.70 896.30 L 161.70 885.40 L 150.00 874.00 L 138.60 862.30 L 127.70 850.30 L 117.20 838.00 L 107.10 825.40 L 97.50 812.60 L 88.20 799.40 L 79.40 785.90 L 71.10 772.30 L 63.20 758.40 L 55.70 744.20 L 48.70 729.80 L 42.10 715.30 L 36.00 700.50 L 30.30 685.60 L 25.10 670.40 L 20.40 655.20 L 16.20 639.70 L 12.40 624.20 L 9.20 608.40 L 6.40 592.60 L 4.10 576.70 L 2.30 560.60 L 1.00 544.50 L 0.30 528.30 L 0.00 512.00 L 0.30 495.70 L 1.00 479.50 L 2.30 463.40 L 4.10 447.30 L 6.40 431.40 L 9.20 415.60 L 12.40 399.80 L 16.20 384.30 L 20.40 368.80 L 25.10 353.60 L 30.30 338.40 L 36.00 323.50 L 42.10 308.70 L 48.70 294.20 L 55.70 279.80 L 63.20 265.60 L 71.10 251.70 L 79.40 238.10 L 88.20 224.60 L 97.50 211.40 L 107.10 198.60 L 117.20 186.00 L 127.70 173.70 L 138.60 161.70 L 150.00 150.00 L 161.70 138.60 L 173.70 127.70 L 186.00 117.20 L 198.60 107.10 L 211.40 97.50 L 224.60 88.20 L 238.10 79.40 L 251.70 71.10 L 265.60 63.20 L 279.80 55.70 L 294.20 48.70 L 308.70 42.10 L 323.50 36.00 L 338.40 30.30 L 353.60 25.10 L 368.80 20.40 L 384.30 16.20 L 399.80 12.40 L 415.60 9.20 L 431.40 6.40 L 447.30 4.10 L 463.40 2.30 L 479.50 1.00 L 495.70 0.30 L 512.00 0.00 L 528.30 0.30 L 544.50 1.00 L 560.60 2.30 L 576.70 4.10 L 592.60 6.40 L 608.40 9.20 L 624.20 12.40 L 639.70 16.20 L 655.20 20.40 L 670.40 25.10 L 685.60 30.30 L 700.50 36.00 L 715.30 42.10 L 729.80 48.70 L 744.20 55.70 L 758.40 63.20 L 772.30 71.10 L 785.90 79.40 L 799.40 88.20 L 812.60 97.50 L 825.40 107.10 L 838.00 117.20 L 850.30 127.70 L 862.30 138.60 L 874.00 150.00 L 885.40 161.70 L 896.30 173.70 L 906.80 186.00 L 916.90 198.60 L 926.50 211.40 L 935.80 224.60 L 944.60 238.10 L 952.90 251.70 L 960.80 265.60 L 968.30 279.80 L 975.30 294.20 L 981.90 308.70 L 988.00 323.50 L 993.70 338.40 L 998.90 353.60 L 1003.60 368.80 L 1007.80 384.30 L 1011.60 399.80 L 1014.80 415.60 L 1017.60 431.40 L 1019.90 447.30 L 1021.70 463.40 L 1023.00 479.50 L 1023.70 495.70 L 1024.00 512.00 Z" fill="#ffffff" fill-rule="evenodd" group-id="1,2,7" node-id="249" stroke="none" target-height="1024" target-width="1024" target-x="0" target-y="0"></path></g><path d="M 1024.00 512.00 L 1023.70 528.30 L 1023.00 544.50 L 1021.70 560.60 L 1019.90 576.70 L 1017.60 592.60 L 1014.80 608.40 L 1011.60 624.20 L 1007.80 639.70 L 1003.60 655.20 L 998.90 670.40 L 993.70 685.60 L 988.00 700.50 L 981.90 715.30 L 975.30 729.80 L 968.30 744.20 L 960.80 758.40 L 952.90 772.30 L 944.60 785.90 L 935.80 799.40 L 926.50 812.60 L 916.90 825.40 L 906.80 838.00 L 896.30 850.30 L 885.40 862.30 L 874.00 874.00 L 862.30 885.40 L 850.30 896.30 L 838.00 906.80 L 825.40 916.90 L 812.60 926.50 L 799.40 935.80 L 785.90 944.60 L 772.30 952.90 L 758.40 960.80 L 744.20 968.30 L 729.80 975.30 L 715.30 981.90 L 700.50 988.00 L 685.60 993.70 L 670.40 998.90 L 655.20 1003.60 L 639.70 1007.80 L 624.20 1011.60 L 608.40 1014.80 L 592.60 1017.60 L 576.70 1019.90 L 560.60 1021.70 L 544.50 1023.00 L 528.30 1023.70 L 512.00 1024.00 L 495.70 1023.70 L 479.50 1023.00 L 463.40 1021.70 L 447.30 1019.90 L 431.40 1017.60 L 415.60 1014.80 L 399.80 1011.60 L 384.30 1007.80 L 368.80 1003.60 L 353.60 998.90 L 338.40 993.70 L 323.50 988.00 L 308.70 981.90 L 294.20 975.30 L 279.80 968.30 L 265.60 960.80 L 251.70 952.90 L 238.10 944.60 L 224.60 935.80 L 211.40 926.50 L 198.60 916.90 L 186.00 906.80 L 173.70 896.30 L 161.70 885.40 L 150.00 874.00 L 138.60 862.30 L 127.70 850.30 L 117.20 838.00 L 107.10 825.40 L 97.50 812.60 L 88.20 799.40 L 79.40 785.90 L 71.10 772.30 L 63.20 758.40 L 55.70 744.20 L 48.70 729.80 L 42.10 715.30 L 36.00 700.50 L 30.30 685.60 L 25.10 670.40 L 20.40 655.20 L 16.20 639.70 L 12.40 624.20 L 9.20 608.40 L 6.40 592.60 L 4.10 576.70 L 2.30 560.60 L 1.00 544.50 L 0.30 528.30 L 0.00 512.00 L 0.30 495.70 L 1.00 479.50 L 2.30 463.40 L 4.10 447.30 L 6.40 431.40 L 9.20 415.60 L 12.40 399.80 L 16.20 384.30 L 20.40 368.80 L 25.10 353.60 L 30.30 338.40 L 36.00 323.50 L 42.10 308.70 L 48.70 294.20 L 55.70 279.80 L 63.20 265.60 L 71.10 251.70 L 79.40 238.10 L 88.20 224.60 L 97.50 211.40 L 107.10 198.60 L 117.20 186.00 L 127.70 173.70 L 138.60 161.70 L 150.00 150.00 L 161.70 138.60 L 173.70 127.70 L 186.00 117.20 L 198.60 107.10 L 211.40 97.50 L 224.60 88.20 L 238.10 79.40 L 251.70 71.10 L 265.60 63.20 L 279.80 55.70 L 294.20 48.70 L 308.70 42.10 L 323.50 36.00 L 338.40 30.30 L 353.60 25.10 L 368.80 20.40 L 384.30 16.20 L 399.80 12.40 L 415.60 9.20 L 431.40 6.40 L 447.30 4.10 L 463.40 2.30 L 479.50 1.00 L 495.70 0.30 L 512.00 0.00 L 528.30 0.30 L 544.50 1.00 L 560.60 2.30 L 576.70 4.10 L 592.60 6.40 L 608.40 9.20 L 624.20 12.40 L 639.70 16.20 L 655.20 20.40 L 670.40 25.10 L 685.60 30.30 L 700.50 36.00 L 715.30 42.10 L 729.80 48.70 L 744.20 55.70 L 758.40 63.20 L 772.30 71.10 L 785.90 79.40 L 799.40 88.20 L 812.60 97.50 L 825.40 107.10 L 838.00 117.20 L 850.30 127.70 L 862.30 138.60 L 874.00 150.00 L 885.40 161.70 L 896.30 173.70 L 906.80 186.00 L 916.90 198.60 L 926.50 211.40 L 935.80 224.60 L 944.60 238.10 L 952.90 251.70 L 960.80 265.60 L 968.30 279.80 L 975.30 294.20 L 981.90 308.70 L 988.00 323.50 L 993.70 338.40 L 998.90 353.60 L 1003.60 368.80 L 1007.80 384.30 L 1011.60 399.80 L 1014.80 415.60 L 1017.60 431.40 L 1019.90 447.30 L 1021.70 463.40 L 1023.00 479.50 L 1023.70 495.70 L 1024.00 512.00 Z" fill="#000000" fill-rule="evenodd" filter="url(#filter-2)" group-id="1,2,8" node-id="254" stroke="none" target-height="1024" target-width="1024" target-x="0" target-y="0"></path></g><g node-id="340"><g node-id="346"><path d="M 952.80 514.00 L 952.60 528.50 L 951.80 543.00 L 950.70 557.40 L 949.00 571.70 L 946.90 585.90 L 944.30 600.00 L 941.20 614.00 L 937.80 627.90 L 933.80 641.60 L 929.50 655.20 L 924.70 668.60 L 919.40 681.90 L 913.70 695.00 L 907.60 707.90 L 901.10 720.60 L 894.20 733.10 L 886.80 745.30 L 879.10 757.40 L 870.90 769.20 L 862.40 780.80 L 853.50 792.00 L 844.10 803.00 L 834.40 813.80 L 824.30 824.30 L 813.80 834.40 L 803.00 844.10 L 792.00 853.50 L 780.80 862.40 L 769.20 870.90 L 757.40 879.10 L 745.30 886.80 L 733.10 894.20 L 720.60 901.10 L 707.90 907.60 L 695.00 913.70 L 681.90 919.40 L 668.60 924.70 L 655.20 929.50 L 641.60 933.80 L 627.90 937.80 L 614.00 941.20 L 600.00 944.30 L 585.90 946.90 L 571.70 949.00 L 557.40 950.70 L 543.00 951.80 L 528.50 952.60 L 514.00 952.80 L 499.40 952.60 L 484.90 951.80 L 470.50 950.70 L 456.20 949.00 L 442.00 946.90 L 427.90 944.30 L 413.90 941.20 L 400.00 937.80 L 386.30 933.80 L 372.70 929.50 L 359.30 924.70 L 346.00 919.40 L 332.90 913.70 L 320.00 907.60 L 307.30 901.10 L 294.80 894.20 L 282.60 886.80 L 270.50 879.10 L 258.70 870.90 L 247.10 862.40 L 235.90 853.50 L 224.90 844.10 L 214.10 834.40 L 203.60 824.30 L 193.50 813.80 L 183.80 803.00 L 174.40 792.00 L 165.50 780.80 L 157.00 769.20 L 148.80 757.40 L 141.10 745.30 L 133.70 733.10 L 126.80 720.60 L 120.30 707.90 L 114.20 695.00 L 108.50 681.90 L 103.20 668.60 L 98.40 655.20 L 94.10 641.60 L 90.10 627.90 L 86.70 614.00 L 83.60 600.00 L 81.00 585.90 L 78.90 571.70 L 77.20 557.40 L 76.10 543.00 L 75.30 528.50 L 75.10 514.00 L 75.30 499.40 L 76.10 484.90 L 77.20 470.50 L 78.90 456.20 L 81.00 442.00 L 83.60 427.90 L 86.70 413.90 L 90.10 400.00 L 94.10 386.30 L 98.40 372.70 L 103.20 359.30 L 108.50 346.00 L 114.20 332.90 L 120.30 320.00 L 126.80 307.30 L 133.70 294.80 L 141.10 282.60 L 148.80 270.50 L 157.00 258.70 L 165.50 247.10 L 174.40 235.90 L 183.80 224.90 L 193.50 214.10 L 203.60 203.60 L 214.10 193.50 L 224.90 183.80 L 235.90 174.40 L 247.10 165.50 L 258.70 157.00 L 270.50 148.80 L 282.60 141.10 L 294.80 133.70 L 307.30 126.80 L 320.00 120.30 L 332.90 114.20 L 346.00 108.50 L 359.30 103.20 L 372.70 98.40 L 386.30 94.10 L 400.00 90.10 L 413.90 86.70 L 427.90 83.60 L 442.00 81.00 L 456.20 78.90 L 470.50 77.20 L 484.90 76.10 L 499.40 75.30 L 514.00 75.10 L 528.50 75.30 L 543.00 76.10 L 557.40 77.20 L 571.70 78.90 L 585.90 81.00 L 600.00 83.60 L 614.00 86.70 L 627.90 90.10 L 641.60 94.10 L 655.20 98.40 L 668.60 103.20 L 681.90 108.50 L 695.00 114.20 L 707.90 120.30 L 720.60 126.80 L 733.10 133.70 L 745.30 141.10 L 757.40 148.80 L 769.20 157.00 L 780.80 165.50 L 792.00 174.40 L 803.00 183.80 L 813.80 193.50 L 824.30 203.60 L 834.40 214.10 L 844.10 224.90 L 853.50 235.90 L 862.40 247.10 L 870.90 258.70 L 879.10 270.50 L 886.80 282.60 L 894.20 294.80 L 901.10 307.30 L 907.60 320.00 L 913.70 332.90 L 919.40 346.00 L 924.70 359.30 L 929.50 372.70 L 933.80 386.30 L 937.80 400.00 L 941.20 413.90 L 944.30 427.90 L 946.90 442.00 L 949.00 456.20 L 950.70 470.50 L 951.80 484.90 L 952.60 499.40 L 952.80 514.00 Z" fill="#316cd4" fill-rule="evenodd" group-id="1,3,9" node-id="261" stroke="none" target-height="877.7" target-width="877.7" target-x="75.1" target-y="75.1"></path></g><path d="M 952.80 514.00 L 952.60 528.50 L 951.80 543.00 L 950.70 557.40 L 949.00 571.70 L 946.90 585.90 L 944.30 600.00 L 941.20 614.00 L 937.80 627.90 L 933.80 641.60 L 929.50 655.20 L 924.70 668.60 L 919.40 681.90 L 913.70 695.00 L 907.60 707.90 L 901.10 720.60 L 894.20 733.10 L 886.80 745.30 L 879.10 757.40 L 870.90 769.20 L 862.40 780.80 L 853.50 792.00 L 844.10 803.00 L 834.40 813.80 L 824.30 824.30 L 813.80 834.40 L 803.00 844.10 L 792.00 853.50 L 780.80 862.40 L 769.20 870.90 L 757.40 879.10 L 745.30 886.80 L 733.10 894.20 L 720.60 901.10 L 707.90 907.60 L 695.00 913.70 L 681.90 919.40 L 668.60 924.70 L 655.20 929.50 L 641.60 933.80 L 627.90 937.80 L 614.00 941.20 L 600.00 944.30 L 585.90 946.90 L 571.70 949.00 L 557.40 950.70 L 543.00 951.80 L 528.50 952.60 L 514.00 952.80 L 499.40 952.60 L 484.90 951.80 L 470.50 950.70 L 456.20 949.00 L 442.00 946.90 L 427.90 944.30 L 413.90 941.20 L 400.00 937.80 L 386.30 933.80 L 372.70 929.50 L 359.30 924.70 L 346.00 919.40 L 332.90 913.70 L 320.00 907.60 L 307.30 901.10 L 294.80 894.20 L 282.60 886.80 L 270.50 879.10 L 258.70 870.90 L 247.10 862.40 L 235.90 853.50 L 224.90 844.10 L 214.10 834.40 L 203.60 824.30 L 193.50 813.80 L 183.80 803.00 L 174.40 792.00 L 165.50 780.80 L 157.00 769.20 L 148.80 757.40 L 141.10 745.30 L 133.70 733.10 L 126.80 720.60 L 120.30 707.90 L 114.20 695.00 L 108.50 681.90 L 103.20 668.60 L 98.40 655.20 L 94.10 641.60 L 90.10 627.90 L 86.70 614.00 L 83.60 600.00 L 81.00 585.90 L 78.90 571.70 L 77.20 557.40 L 76.10 543.00 L 75.30 528.50 L 75.10 514.00 L 75.30 499.40 L 76.10 484.90 L 77.20 470.50 L 78.90 456.20 L 81.00 442.00 L 83.60 427.90 L 86.70 413.90 L 90.10 400.00 L 94.10 386.30 L 98.40 372.70 L 103.20 359.30 L 108.50 346.00 L 114.20 332.90 L 120.30 320.00 L 126.80 307.30 L 133.70 294.80 L 141.10 282.60 L 148.80 270.50 L 157.00 258.70 L 165.50 247.10 L 174.40 235.90 L 183.80 224.90 L 193.50 214.10 L 203.60 203.60 L 214.10 193.50 L 224.90 183.80 L 235.90 174.40 L 247.10 165.50 L 258.70 157.00 L 270.50 148.80 L 282.60 141.10 L 294.80 133.70 L 307.30 126.80 L 320.00 120.30 L 332.90 114.20 L 346.00 108.50 L 359.30 103.20 L 372.70 98.40 L 386.30 94.10 L 400.00 90.10 L 413.90 86.70 L 427.90 83.60 L 442.00 81.00 L 456.20 78.90 L 470.50 77.20 L 484.90 76.10 L 499.40 75.30 L 514.00 75.10 L 528.50 75.30 L 543.00 76.10 L 557.40 77.20 L 571.70 78.90 L 585.90 81.00 L 600.00 83.60 L 614.00 86.70 L 627.90 90.10 L 641.60 94.10 L 655.20 98.40 L 668.60 103.20 L 681.90 108.50 L 695.00 114.20 L 707.90 120.30 L 720.60 126.80 L 733.10 133.70 L 745.30 141.10 L 757.40 148.80 L 769.20 157.00 L 780.80 165.50 L 792.00 174.40 L 803.00 183.80 L 813.80 193.50 L 824.30 203.60 L 834.40 214.10 L 844.10 224.90 L 853.50 235.90 L 862.40 247.10 L 870.90 258.70 L 879.10 270.50 L 886.80 282.60 L 894.20 294.80 L 901.10 307.30 L 907.60 320.00 L 913.70 332.90 L 919.40 346.00 L 924.70 359.30 L 929.50 372.70 L 933.80 386.30 L 937.80 400.00 L 941.20 413.90 L 944.30 427.90 L 946.90 442.00 L 949.00 456.20 L 950.70 470.50 L 951.80 484.90 L 952.60 499.40 L 952.80 514.00 Z" fill="#000000" fill-rule="evenodd" filter="url(#filter-5)" group-id="1,3,10" node-id="266" stroke="none" target-height="877.7" target-width="877.7" target-x="75.1" target-y="75.1"></path></g><g node-id="341"><g node-id="348"><g node-id="350"><g node-id="356"><path d="M 150.20 667.00 L 514.90 459.50 L 871.90 667.00 L 511.00 869.10 Z" fill="#000000" fill-rule="evenodd" filter="url(#filter-7)" group-id="1,4,11,13,19" node-id="276" stroke="none" target-height="409.59998" target-width="721.7" target-x="150.2" target-y="459.5"></path></g><path d="M 150.20 667.00 L 514.90 459.50 L 871.90 667.00 L 511.00 869.10 Z" fill="#ffffff" fill-rule="evenodd" group-id="1,4,11,13,20" node-id="281" stroke="#c2dafe" stroke-linecap="butt" stroke-width="1" target-height="409.59998" target-width="721.7" target-x="150.2" target-y="459.5"></path></g><g node-id="351"><g node-id="358"><path d="M 238.00 636.10 L 520.90 477.10 L 797.70 636.10 L 517.90 791.10 Z" fill="#000000" fill-rule="evenodd" filter="url(#filter-9)" group-id="1,4,11,14,21" node-id="289" stroke="none" target-height="313.99997" target-width="559.7" target-x="238" target-y="477.1"></path></g><path d="M 238.00 636.10 L 520.90 477.10 L 797.70 636.10 L 517.90 791.10 Z" fill="#c2dafe" fill-rule="evenodd" group-id="1,4,11,14,22" node-id="294" stroke="none" target-height="313.99997" target-width="559.7" target-x="238" target-y="477.1"></path></g></g></g><g node-id="342"><g node-id="349"><g node-id="352"><path d="M 737.30 593.50 L 736.90 599.00 L 736.00 604.50 L 734.50 609.90 L 732.30 615.20 L 729.50 620.60 L 726.30 625.50 L 722.50 630.40 L 718.10 635.30 L 713.10 640.10 L 707.50 644.90 L 700.20 650.30 L 692.20 655.50 L 683.20 660.60 L 673.30 665.60 L 663.40 669.90 L 652.70 674.00 L 641.30 677.90 L 629.10 681.50 L 616.90 684.60 L 604.20 687.30 L 590.90 689.70 L 576.90 691.80 L 563.00 693.30 L 548.70 694.50 L 534.00 695.20 L 518.80 695.40 L 503.60 695.20 L 488.90 694.50 L 474.60 693.30 L 460.80 691.80 L 446.80 689.70 L 433.40 687.30 L 420.70 684.60 L 408.60 681.50 L 396.30 677.90 L 384.90 674.00 L 374.30 669.90 L 364.40 665.60 L 354.40 660.60 L 345.50 655.50 L 337.40 650.30 L 330.20 644.90 L 324.50 640.10 L 319.50 635.30 L 315.20 630.40 L 311.40 625.50 L 308.20 620.60 L 305.30 615.20 L 303.20 609.90 L 301.60 604.50 L 300.70 599.00 L 300.40 593.50 L 300.70 587.90 L 301.60 582.40 L 303.20 577.10 L 305.30 571.70 L 308.20 566.40 L 311.40 561.40 L 315.20 556.50 L 319.50 551.70 L 324.50 546.80 L 330.20 542.00 L 337.40 536.60 L 345.50 531.40 L 354.40 526.30 L 364.40 521.40 L 374.30 517.00 L 384.90 512.90 L 396.30 509.00 L 408.60 505.40 L 420.70 502.40 L 433.40 499.60 L 446.80 497.20 L 460.80 495.20 L 474.60 493.60 L 488.90 492.50 L 503.60 491.80 L 518.80 491.50 L 534.00 491.80 L 548.70 492.50 L 563.00 493.60 L 576.90 495.20 L 590.90 497.20 L 604.20 499.60 L 616.90 502.40 L 629.10 505.40 L 641.30 509.00 L 652.70 512.90 L 663.40 517.00 L 673.30 521.40 L 683.20 526.30 L 692.20 531.40 L 700.20 536.60 L 707.50 542.00 L 713.10 546.80 L 718.10 551.70 L 722.50 556.50 L 726.30 561.40 L 729.50 566.40 L 732.30 571.70 L 734.50 577.10 L 736.00 582.40 L 736.90 587.90 L 737.30 593.50 Z" fill="url(#linearGradient-10)" fill-rule="evenodd" group-id="1,5,12,15" id="椭圆形" node-id="79" stroke="none" target-height="203.90002" target-width="436.9" target-x="300.4" target-y="491.5"></path><path d="M 737.30 538.90 L 736.90 544.40 L 736.00 549.90 L 734.50 555.30 L 732.30 560.60 L 729.50 566.00 L 726.30 570.90 L 722.50 575.80 L 718.10 580.70 L 713.10 585.50 L 707.50 590.30 L 700.20 595.70 L 692.20 600.90 L 683.20 606.00 L 673.30 610.90 L 663.40 615.30 L 652.70 619.40 L 641.30 623.30 L 629.10 626.90 L 616.90 630.00 L 604.20 632.70 L 590.90 635.10 L 576.90 637.20 L 563.00 638.70 L 548.70 639.80 L 534.00 640.50 L 518.80 640.80 L 503.60 640.50 L 488.90 639.80 L 474.60 638.70 L 460.80 637.20 L 446.80 635.10 L 433.40 632.70 L 420.70 630.00 L 408.60 626.90 L 396.30 623.30 L 384.90 619.40 L 374.30 615.30 L 364.40 610.90 L 354.40 606.00 L 345.50 600.90 L 337.40 595.70 L 330.20 590.30 L 324.50 585.50 L 319.50 580.70 L 315.20 575.80 L 311.40 570.90 L 308.20 566.00 L 305.30 560.60 L 303.20 555.30 L 301.60 549.90 L 300.70 544.40 L 300.40 538.90 L 300.70 533.30 L 301.60 527.80 L 303.20 522.40 L 305.30 517.10 L 308.20 511.80 L 311.40 506.80 L 315.20 501.90 L 319.50 497.00 L 324.50 492.20 L 330.20 487.40 L 337.40 482.00 L 345.50 476.80 L 354.40 471.70 L 364.40 466.80 L 374.30 462.40 L 384.90 458.30 L 396.30 454.40 L 408.60 450.80 L 420.70 447.70 L 433.40 445.00 L 446.80 442.60 L 460.80 440.50 L 474.60 439.00 L 488.90 437.90 L 503.60 437.20 L 518.80 436.90 L 534.00 437.20 L 548.70 437.90 L 563.00 439.00 L 576.90 440.50 L 590.90 442.60 L 604.20 445.00 L 616.90 447.70 L 629.10 450.80 L 641.30 454.40 L 652.70 458.30 L 663.40 462.40 L 673.30 466.80 L 683.20 471.70 L 692.20 476.80 L 700.20 482.00 L 707.50 487.40 L 713.10 492.20 L 718.10 497.00 L 722.50 501.90 L 726.30 506.80 L 729.50 511.80 L 732.30 517.10 L 734.50 522.40 L 736.00 527.80 L 736.90 533.30 L 737.30 538.90 Z" fill="url(#linearGradient-11)" fill-rule="evenodd" group-id="1,5,12,15" id="椭圆形" node-id="80" stroke="none" target-height="203.9" target-width="436.9" target-x="300.4" target-y="436.9"></path></g><g node-id="353"><path d="M 634.90 518.80 L 634.60 522.40 L 633.90 525.90 L 632.80 529.30 L 631.10 532.70 L 629.00 536.10 L 625.90 539.90 L 622.20 543.70 L 617.70 547.40 L 612.50 551.10 L 607.10 554.30 L 601.20 557.30 L 594.60 560.20 L 587.40 562.90 L 572.40 567.30 L 564.20 569.10 L 546.90 571.80 L 537.90 572.70 L 518.80 573.40 L 499.80 572.70 L 490.80 571.80 L 473.40 569.10 L 465.20 567.30 L 450.30 562.90 L 443.00 560.20 L 436.40 557.30 L 430.50 554.30 L 425.20 551.10 L 419.90 547.40 L 415.50 543.70 L 411.80 539.90 L 408.70 536.10 L 406.50 532.70 L 404.90 529.30 L 403.70 525.90 L 403.00 522.40 L 402.80 518.80 L 403.00 515.30 L 403.70 511.80 L 404.90 508.40 L 406.50 505.00 L 408.70 501.60 L 411.80 497.70 L 415.50 494.00 L 419.90 490.20 L 425.20 486.60 L 430.50 483.40 L 436.40 480.40 L 443.00 477.50 L 450.30 474.80 L 465.20 470.40 L 473.40 468.60 L 490.80 465.80 L 499.80 464.90 L 518.80 464.20 L 537.90 464.90 L 546.90 465.80 L 564.20 468.60 L 572.40 470.40 L 587.40 474.80 L 594.60 477.50 L 601.20 480.40 L 607.10 483.40 L 612.50 486.60 L 617.70 490.20 L 622.20 494.00 L 625.90 497.70 L 629.00 501.60 L 631.10 505.00 L 632.80 508.40 L 633.90 511.80 L 634.60 515.30 L 634.90 518.80 Z" fill="url(#linearGradient-12)" fill-rule="evenodd" group-id="1,5,12,16" id="椭圆形" node-id="82" stroke="none" target-height="109.20001" target-width="232.10004" target-x="402.8" target-y="464.2"></path><path d="M 634.90 491.50 L 634.60 495.10 L 633.90 498.50 L 632.80 502.00 L 631.10 505.40 L 629.00 508.80 L 625.90 512.60 L 622.20 516.40 L 617.70 520.10 L 612.50 523.80 L 607.10 527.00 L 601.20 530.00 L 594.60 532.90 L 587.40 535.60 L 572.40 540.00 L 564.20 541.80 L 546.90 544.50 L 537.90 545.40 L 518.80 546.10 L 499.80 545.40 L 490.80 544.50 L 473.40 541.80 L 465.20 540.00 L 450.30 535.60 L 443.00 532.90 L 436.40 530.00 L 430.50 527.00 L 425.20 523.80 L 419.90 520.10 L 415.50 516.40 L 411.80 512.60 L 408.70 508.80 L 406.50 505.40 L 404.90 502.00 L 403.70 498.50 L 403.00 495.10 L 402.80 491.50 L 403.00 488.00 L 403.70 484.50 L 404.90 481.10 L 406.50 477.70 L 408.70 474.30 L 411.80 470.40 L 415.50 466.60 L 419.90 462.90 L 425.20 459.30 L 430.50 456.10 L 436.40 453.10 L 443.00 450.20 L 450.30 447.40 L 465.20 443.10 L 473.40 441.30 L 490.80 438.50 L 499.80 437.60 L 518.80 436.90 L 537.90 437.60 L 546.90 438.50 L 564.20 441.30 L 572.40 443.10 L 587.40 447.40 L 594.60 450.20 L 601.20 453.10 L 607.10 456.10 L 612.50 459.30 L 617.70 462.90 L 622.20 466.60 L 625.90 470.40 L 629.00 474.30 L 631.10 477.70 L 632.80 481.10 L 633.90 484.50 L 634.60 488.00 L 634.90 491.50 Z" fill="url(#linearGradient-13)" fill-rule="evenodd" group-id="1,5,12,16" id="椭圆形" node-id="83" stroke="none" target-height="109.19998" target-width="232.10004" target-x="402.8" target-y="436.9"></path></g><path d="M 566.60 455.40 L 457.40 474.60 L 457.40 501.80 L 476.90 512.00 L 566.60 482.60 Z" fill="#ffffff" fill-rule="evenodd" group-id="1,5,12" id="矩形备份" node-id="84" stroke="none" target-height="56.600006" target-width="109.19998" target-x="457.4" target-y="455.4"></path><path d="M 580.30 462.20 L 471.00 481.40 L 471.00 508.60 L 580.30 489.40 Z" fill="#3871d7" fill-rule="evenodd" group-id="1,5,12" id="矩形备份" node-id="85" stroke="none" target-height="46.399994" target-width="109.29999" target-x="471" target-y="462.2"></path><g node-id="354"><path d="M 662.20 180.90 L 314.00 241.90 L 314.00 480.80 L 351.60 505.20 L 662.20 419.80 L 689.50 208.20 Z" fill="url(#linearGradient-14)" fill-rule="evenodd" group-id="1,5,12,17" id="矩形" node-id="86" stroke="none" target-height="324.30002" target-width="375.5" target-x="314" target-y="180.9"></path></g><g node-id="355"><g node-id="360"><path d="M 689.50 208.20 L 341.30 269.20 L 341.30 508.10 L 689.50 447.20 Z" fill="url(#linearGradient-15)" fill-rule="evenodd" group-id="1,5,12,18,23" node-id="319" stroke="none" target-height="299.90002" target-width="348.2" target-x="341.3" target-y="208.2"></path></g><g node-id="361"><path d="M 689.50 396.10 L 341.30 446.70 L 341.30 508.60 L 689.50 447.20 Z" fill="url(#linearGradient-18)" fill-rule="evenodd" group-id="1,5,12,18,24" node-id="324" stroke="none" target-height="112.5" target-width="348.2" target-x="341.3" target-y="396.1"></path></g><g node-id="362"><path d="M 539.30 460.80 L 539.10 463.30 L 538.50 465.60 L 536.10 469.60 L 532.50 472.60 L 530.40 473.60 L 528.10 474.20 L 525.70 474.50 L 523.20 474.20 L 520.90 473.60 L 516.80 471.20 L 513.90 467.70 L 512.90 465.60 L 512.20 463.30 L 512.00 460.80 L 512.20 458.30 L 512.90 456.00 L 515.20 452.00 L 518.80 449.00 L 520.90 448.00 L 523.20 447.40 L 525.70 447.20 L 528.10 447.40 L 530.40 448.00 L 532.50 449.00 L 536.10 452.00 L 538.50 456.00 L 539.10 458.30 L 539.30 460.80 Z" fill="#ffffff" fill-rule="evenodd" group-id="1,5,12,18,25" id="椭圆形" node-id="92" stroke="none" target-height="27.299988" target-width="27.299988" target-x="512" target-y="447.2"></path></g><g node-id="363"><path d="M 539.30 454.00 L 539.10 456.50 L 538.50 458.80 L 537.40 460.90 L 536.10 462.80 L 532.50 465.80 L 530.40 466.80 L 528.10 467.40 L 525.70 467.60 L 523.20 467.40 L 520.90 466.80 L 518.80 465.80 L 516.80 464.40 L 513.90 460.90 L 512.90 458.80 L 512.20 456.50 L 512.00 454.00 L 512.20 451.50 L 512.90 449.20 L 515.20 445.20 L 518.80 442.20 L 520.90 441.20 L 523.20 440.60 L 525.70 440.30 L 528.10 440.60 L 530.40 441.20 L 534.50 443.60 L 537.40 447.10 L 538.50 449.20 L 539.10 451.50 L 539.30 454.00 Z" fill="#46eff8" fill-rule="evenodd" group-id="1,5,12,18,26" id="椭圆形" node-id="93" stroke="none" target-height="27.300018" target-width="27.299988" target-x="512" target-y="440.3"></path></g><path d="M 654.10 262.60 L 527.30 284.80 L 527.30 371.80 L 654.10 349.60 Z" fill="url(#linearGradient-19)" fill-rule="evenodd" group-id="1,5,12,18,27" node-id="336" stroke="none" target-height="109.19998" target-width="126.79999" target-x="527.3" target-y="262.6"></path></g><path d="M 438.80 302.50 L 434.70 303.50 L 426.90 306.50 L 423.20 308.50 L 418.60 311.70 L 414.40 315.30 L 410.60 319.30 L 407.20 323.80 L 404.40 328.50 L 402.10 333.60 L 400.80 337.50 L 399.30 345.70 L 399.00 349.90 L 399.30 354.40 L 399.90 358.60 L 401.00 362.60 L 402.40 366.30 L 404.30 369.90 L 406.40 373.20 L 408.80 376.20 L 411.60 378.90 L 414.70 381.30 L 418.00 383.40 L 421.50 385.10 L 425.30 386.50 L 429.20 387.50 L 433.30 388.00 L 437.60 388.20 L 442.10 387.90 L 446.30 387.20 L 450.40 386.10 L 458.00 382.90 L 462.80 380.10 L 467.20 376.70 L 471.30 372.90 L 474.90 368.70 L 478.00 364.10 L 480.60 359.20 L 482.20 355.30 L 484.30 347.30 L 484.80 343.10 L 438.80 348.50 L 438.80 302.50 Z" fill="#ffffff" fill-rule="nonzero" group-id="1,5,12" id="路径" node-id="97" stroke="none" target-height="85.70001" target-width="85.79999" target-x="399" target-y="302.5"></path><path d="M 445.40 298.40 L 445.40 341.10 L 488.10 336.10 L 486.90 327.80 L 484.10 320.40 L 480.10 313.80 L 474.90 308.20 L 468.70 303.80 L 461.60 300.50 L 453.80 298.70 L 445.40 298.40 Z" fill="#46eff8" fill-rule="nonzero" group-id="1,5,12" id="路径" node-id="98" stroke="none" target-height="42.700012" target-width="42.700012" target-x="445.4" target-y="298.4"></path></g></g><path d="M 343.30 349.50 L 325.10 352.40 L 291.50 359.00 L 276.10 362.60 L 260.40 366.70 L 245.90 370.90 L 232.50 375.30 L 220.10 379.70 L 207.60 384.80 L 196.30 389.90 L 186.30 395.10 L 177.50 400.20 L 170.30 405.00 L 164.10 409.70 L 158.70 414.30 L 154.20 418.90 L 150.30 423.40 L 147.30 427.70 L 144.90 431.90 L 143.10 436.10 L 141.80 440.30 L 141.10 444.50 L 140.80 448.70 L 141.10 453.00 L 141.90 457.20 L 143.20 461.40 L 145.00 465.60 L 147.40 469.80 L 150.50 474.10 L 154.30 478.70 L 159.00 483.30 L 164.40 488.00 L 170.70 492.70 L 178.00 497.50 L 186.90 502.70 L 197.00 507.80 L 208.40 513.00 L 221.10 518.10 L 233.60 522.50 L 247.20 526.90 L 261.90 531.10 L 277.80 535.20 L 293.30 538.80 L 327.20 545.40 L 345.60 548.30 L 382.60 553.10 L 402.20 555.00 L 442.80 557.90 L 463.40 558.80 L 506.40 559.60 L 528.20 559.40 L 549.40 558.80 L 590.30 556.70 L 610.60 555.00 L 649.10 550.80 L 685.60 545.40 L 703.00 542.20 L 735.10 535.20 L 751.00 531.10 L 765.70 526.90 L 779.20 522.50 L 791.80 518.10 L 804.50 513.00 L 815.90 507.80 L 826.00 502.70 L 834.90 497.50 L 842.20 492.70 L 848.50 488.00 L 853.90 483.30 L 858.50 478.70 L 862.40 474.10 L 865.50 469.80 L 867.90 465.60 L 869.70 461.40 L 871.00 457.20 L 871.80 453.00 L 872.10 448.70 L 871.80 444.10 L 870.90 439.60 L 869.40 435.10 L 867.20 430.50 L 864.40 425.90 L 861.20 421.80 L 857.50 417.60 L 853.10 413.40 L 848.10 409.10 L 842.30 404.80 L 835.00 400.00 L 826.90 395.30 L 817.70 390.50 L 807.30 385.70 L 797.20 381.50 L 774.10 373.20 L 748.40 365.60 L 720.50 358.80 L 705.20 355.60 L 685.10 351.90 L 663.70 348.60 L 641.20 345.60" fill="none" group-id="1,6" id="路径" node-id="99" stroke="url(#linearGradient-22)" stroke-linecap="round" stroke-width="2" target-height="213.99997" target-width="731.3" target-x="140.8" target-y="345.6"></path></g></svg>